<?xml version="1.0" encoding="UTF-8"?><svg id="Layer_2" xmlns="http://www.w3.org/2000/svg" viewBox="0 0 79 80.92"><defs><style>.cls-1{fill:#212121;stroke-width:0px;}</style></defs><g id="Layer_1-2"><path class="cls-1" d="M61.66,40.46c9.58,0,17.34,7.76,17.34,17.34,0,7.18-5.47,14.7-16.18,22.73-.69.51-1.63.51-2.31,0-10.71-8.03-16.18-15.56-16.18-22.73,0-9.58,7.76-17.34,17.34-17.34ZM38.54,0c21.28,0,38.54,17.25,38.54,38.54,0,1.51-.09,3-.26,4.46-1.6-1.64-3.47-3.02-5.53-4.07v-.38c0-2.66-.31-5.24-.91-7.71h-12.94c.19,2,.31,4.05.35,6.13-2.04.38-3.98,1.04-5.77,1.96v-.38c0-2.66-.14-5.24-.4-7.71h-26.18c-.26,2.47-.4,5.05-.4,7.71,0,4.08.33,7.98.92,11.56h15.94c-.71,1.82-1.18,3.76-1.36,5.78h-13.34c2.51,9.3,6.88,15.42,11.32,15.42,1.75,0,3.49-.95,5.11-2.67,1.39,2.37,3.21,4.71,5.39,7.01-3.34.94-6.86,1.45-10.5,1.45C17.25,77.08,0,59.82,0,38.54S17.25,0,38.54,0ZM21.23,55.88h-10.49c3.69,5.91,9.22,10.55,15.78,13.14-2.01-3.16-3.67-7.11-4.89-11.62l-.39-1.52ZM61.66,52.02c-3.19,0-5.78,2.59-5.78,5.78s2.59,5.78,5.78,5.78,5.78-2.59,5.78-5.78-2.59-5.78-5.78-5.78ZM19.63,30.83H6.69l-.02.07c-.59,2.45-.9,5.01-.9,7.64,0,4.07.74,7.97,2.1,11.56h12.23c-.55-3.66-.84-7.54-.84-11.56,0-2.64.13-5.21.37-7.71ZM26.52,8.06l-.09.03c-7.89,3.14-14.27,9.26-17.76,16.96h11.75c1.21-6.75,3.31-12.63,6.1-17ZM38.54,5.78l-.45.02c-4.88.45-9.59,8.16-11.77,19.25h24.44c-2.18-11.06-6.87-18.76-11.73-19.25l-.49-.02ZM50.56,8.06l.41.67c2.58,4.29,4.54,9.91,5.68,16.33h11.75c-3.33-7.37-9.31-13.28-16.72-16.53l-1.12-.47Z"/><path class="cls-1" d="M61.66,40.46c9.58,0,17.34,7.76,17.34,17.34,0,7.18-5.47,14.7-16.18,22.73-.69.51-1.63.51-2.31,0-10.71-8.03-16.18-15.56-16.18-22.73,0-9.58,7.76-17.34,17.34-17.34ZM38.54,0c21.28,0,38.54,17.25,38.54,38.54,0,1.51-.09,3-.26,4.46-1.6-1.64-3.47-3.02-5.53-4.07v-.38c0-2.66-.31-5.24-.91-7.71h-12.94c.19,2,.31,4.05.35,6.13-2.04.38-3.98,1.04-5.77,1.96v-.38c0-2.66-.14-5.24-.4-7.71h-26.18c-.26,2.47-.4,5.05-.4,7.71,0,4.08.33,7.98.92,11.56h15.94c-.71,1.82-1.18,3.76-1.36,5.78h-13.34c2.51,9.3,6.88,15.42,11.32,15.42,1.75,0,3.49-.95,5.11-2.67,1.39,2.37,3.21,4.71,5.39,7.01-3.34.94-6.86,1.45-10.5,1.45C17.25,77.08,0,59.82,0,38.54S17.25,0,38.54,0ZM21.23,55.88h-10.49c3.69,5.91,9.22,10.55,15.78,13.14-2.01-3.16-3.67-7.11-4.89-11.62l-.39-1.52ZM61.66,52.02c-3.19,0-5.78,2.59-5.78,5.78s2.59,5.78,5.78,5.78,5.78-2.59,5.78-5.78-2.59-5.78-5.78-5.78ZM19.63,30.83H6.69l-.02.07c-.59,2.45-.9,5.01-.9,7.64,0,4.07.74,7.97,2.1,11.56h12.23c-.55-3.66-.84-7.54-.84-11.56,0-2.64.13-5.21.37-7.71ZM26.52,8.06l-.09.03c-7.89,3.14-14.27,9.26-17.76,16.96h11.75c1.21-6.75,3.31-12.63,6.1-17ZM38.54,5.78l-.45.02c-4.88.45-9.59,8.16-11.77,19.25h24.44c-2.18-11.06-6.87-18.76-11.73-19.25l-.49-.02ZM50.56,8.06l.41.67c2.58,4.29,4.54,9.91,5.68,16.33h11.75c-3.33-7.37-9.31-13.28-16.72-16.53l-1.12-.47Z"/><path class="cls-1" d="M61.66,40.46c9.58,0,17.34,7.76,17.34,17.34,0,7.18-5.47,14.7-16.18,22.73-.69.51-1.63.51-2.31,0-10.71-8.03-16.18-15.56-16.18-22.73,0-9.58,7.76-17.34,17.34-17.34ZM38.54,0c21.28,0,38.54,17.25,38.54,38.54,0,1.51-.09,3-.26,4.46-1.6-1.64-3.47-3.02-5.53-4.07v-.38c0-2.66-.31-5.24-.91-7.71h-12.94c.19,2,.31,4.05.35,6.13-2.04.38-3.98,1.04-5.77,1.96v-.38c0-2.66-.14-5.24-.4-7.71h-26.18c-.26,2.47-.4,5.05-.4,7.71,0,4.08.33,7.98.92,11.56h15.94c-.71,1.82-1.18,3.76-1.36,5.78h-13.34c2.51,9.3,6.88,15.42,11.32,15.42,1.75,0,3.49-.95,5.11-2.67,1.39,2.37,3.21,4.71,5.39,7.01-3.34.94-6.86,1.45-10.5,1.45C17.25,77.08,0,59.82,0,38.54S17.25,0,38.54,0ZM21.23,55.88h-10.49c3.69,5.91,9.22,10.55,15.78,13.14-2.01-3.16-3.67-7.11-4.89-11.62l-.39-1.52ZM61.66,52.02c-3.19,0-5.78,2.59-5.78,5.78s2.59,5.78,5.78,5.78,5.78-2.59,5.78-5.78-2.59-5.78-5.78-5.78ZM19.63,30.83H6.69l-.02.07c-.59,2.45-.9,5.01-.9,7.64,0,4.07.74,7.97,2.1,11.56h12.23c-.55-3.66-.84-7.54-.84-11.56,0-2.64.13-5.21.37-7.71ZM26.52,8.06l-.09.03c-7.89,3.14-14.27,9.26-17.76,16.96h11.75c1.21-6.75,3.31-12.63,6.1-17ZM38.54,5.78l-.45.02c-4.88.45-9.59,8.16-11.77,19.25h24.44c-2.18-11.06-6.87-18.76-11.73-19.25l-.49-.02ZM50.56,8.06l.41.67c2.58,4.29,4.54,9.91,5.68,16.33h11.75c-3.33-7.37-9.31-13.28-16.72-16.53l-1.12-.47Z"/><path class="cls-1" d="M61.66,40.46c9.58,0,17.34,7.76,17.34,17.34,0,7.18-5.47,14.7-16.18,22.73-.69.51-1.63.51-2.31,0-10.71-8.03-16.18-15.56-16.18-22.73,0-9.58,7.76-17.34,17.34-17.34ZM38.54,0c21.28,0,38.54,17.25,38.54,38.54,0,1.51-.09,3-.26,4.46-1.6-1.64-3.47-3.02-5.53-4.07v-.38c0-2.66-.31-5.24-.91-7.71h-12.94c.19,2,.31,4.05.35,6.13-2.04.38-3.98,1.04-5.77,1.96v-.38c0-2.66-.14-5.24-.4-7.71h-26.18c-.26,2.47-.4,5.05-.4,7.71,0,4.08.33,7.98.92,11.56h15.94c-.71,1.82-1.18,3.76-1.36,5.78h-13.34c2.51,9.3,6.88,15.42,11.32,15.42,1.75,0,3.49-.95,5.11-2.67,1.39,2.37,3.21,4.71,5.39,7.01-3.34.94-6.86,1.45-10.5,1.45C17.25,77.08,0,59.82,0,38.54S17.25,0,38.54,0ZM21.23,55.88h-10.49c3.69,5.91,9.22,10.55,15.78,13.14-2.01-3.16-3.67-7.11-4.89-11.62l-.39-1.52ZM61.66,52.02c-3.19,0-5.78,2.59-5.78,5.78s2.59,5.78,5.78,5.78,5.78-2.59,5.78-5.78-2.59-5.78-5.78-5.78ZM19.63,30.83H6.69l-.02.07c-.59,2.45-.9,5.01-.9,7.64,0,4.07.74,7.97,2.1,11.56h12.23c-.55-3.66-.84-7.54-.84-11.56,0-2.64.13-5.21.37-7.71ZM26.52,8.06l-.09.03c-7.89,3.14-14.27,9.26-17.76,16.96h11.75c1.21-6.75,3.31-12.63,6.1-17ZM38.54,5.78l-.45.02c-4.88.45-9.59,8.16-11.77,19.25h24.44c-2.18-11.06-6.87-18.76-11.73-19.25l-.49-.02ZM50.56,8.06l.41.67c2.58,4.29,4.54,9.91,5.68,16.33h11.75c-3.33-7.37-9.31-13.28-16.72-16.53l-1.12-.47Z"/><path class="cls-1" d="M61.66,40.46c9.58,0,17.34,7.76,17.34,17.34,0,7.18-5.47,14.7-16.18,22.73-.69.51-1.63.51-2.31,0-10.71-8.03-16.18-15.56-16.18-22.73,0-9.58,7.76-17.34,17.34-17.34ZM38.54,0c21.28,0,38.54,17.25,38.54,38.54,0,1.51-.09,3-.26,4.46-1.6-1.64-3.47-3.02-5.53-4.07v-.38c0-2.66-.31-5.24-.91-7.71h-12.94c.19,2,.31,4.05.35,6.13-2.04.38-3.98,1.04-5.77,1.96v-.38c0-2.66-.14-5.24-.4-7.71h-26.18c-.26,2.47-.4,5.05-.4,7.71,0,4.08.33,7.98.92,11.56h15.94c-.71,1.82-1.18,3.76-1.36,5.78h-13.34c2.51,9.3,6.88,15.42,11.32,15.42,1.75,0,3.49-.95,5.11-2.67,1.39,2.37,3.21,4.71,5.39,7.01-3.34.94-6.86,1.45-10.5,1.45C17.25,77.08,0,59.82,0,38.54S17.25,0,38.54,0ZM21.23,55.88h-10.49c3.69,5.91,9.22,10.55,15.78,13.14-2.01-3.16-3.67-7.11-4.89-11.62l-.39-1.52ZM61.66,52.02c-3.19,0-5.78,2.59-5.78,5.78s2.59,5.78,5.78,5.78,5.78-2.59,5.78-5.78-2.59-5.78-5.78-5.78ZM19.63,30.83H6.69l-.02.07c-.59,2.45-.9,5.01-.9,7.64,0,4.07.74,7.97,2.1,11.56h12.23c-.55-3.66-.84-7.54-.84-11.56,0-2.64.13-5.21.37-7.71ZM26.52,8.06l-.09.03c-7.89,3.14-14.27,9.26-17.76,16.96h11.75c1.21-6.75,3.31-12.63,6.1-17ZM38.54,5.78l-.45.02c-4.88.45-9.59,8.16-11.77,19.25h24.44c-2.18-11.06-6.87-18.76-11.73-19.25l-.49-.02ZM50.56,8.06l.41.67c2.58,4.29,4.54,9.91,5.68,16.33h11.75c-3.33-7.37-9.31-13.28-16.72-16.53l-1.12-.47Z"/></g></svg>