<?xml version="1.0" encoding="UTF-8"?><svg id="Layer_2" xmlns="http://www.w3.org/2000/svg" viewBox="0 0 148.6 174"><defs><style>.cls-1{stroke-miterlimit:10;stroke-width:13px;}.cls-1,.cls-2{fill:none;stroke:#231f20;stroke-linecap:round;}.cls-2{stroke-linejoin:round;stroke-width:6px;}</style></defs><g id="Layer_1-2"><path class="cls-1" d="M6.5,167.5v-34.29c0-26.76,27.08-48.45,60.49-48.45,16.7,0,31.83,5.42,42.77,14.19,3.13,2.5,5.92,5.28,8.3,8.29"/><circle class="cls-1" cx="66.99" cy="41.72" r="35.22"/><circle class="cls-2" cx="119.26" cy="143.77" r="9.98"/><path class="cls-2" d="M139.44,141.53c.17,1.5.17,3.01,0,4.49l6.16,4.79c-.31,1.16-.69,2.29-1.15,3.4s-.99,2.18-1.59,3.21l-7.74-.96c-.93,1.16-1.99,2.23-3.18,3.18l.97,7.74c-1.02.59-2.09,1.12-3.22,1.59s-2.25.85-3.4,1.15l-4.79-6.16c-1.5.17-3.01.17-4.49,0l-4.79,6.15c-1.16-.31-2.29-.69-3.4-1.15s-2.18-.99-3.22-1.59l.97-7.75c-1.16-.93-2.23-1.99-3.17-3.17l-7.75.97c-.59-1.02-1.12-2.09-1.59-3.22s-.85-2.26-1.15-3.4l6.16-4.79c-.17-1.5-.17-3.01,0-4.49l-6.16-4.79c.31-1.16.69-2.29,1.15-3.39.46-1.11.99-2.18,1.59-3.22l7.74.96c.93-1.16,1.99-2.23,3.18-3.18l-.97-7.74c1.02-.59,2.09-1.12,3.22-1.59s2.25-.85,3.4-1.15l4.79,6.16c1.5-.17,3.01-.17,4.49,0l4.79-6.15c1.16.31,2.29.69,3.4,1.15,1.11.45,2.18.98,3.21,1.58l-.97,7.75c1.16.93,2.23,1.99,3.17,3.17l7.75-.97c.59,1.02,1.12,2.09,1.59,3.22s.85,2.26,1.15,3.4l-6.16,4.79Z"/></g></svg>