<?xml version="1.0" standalone="no"?>
<!DOCTYPE svg PUBLIC "-//W3C//DTD SVG 20010904//EN"
 "http://www.w3.org/TR/2001/REC-SVG-20010904/DTD/svg10.dtd">
<svg version="1.0" xmlns="http://www.w3.org/2000/svg"
 width="900.000000pt" height="900.000000pt" viewBox="0 0 900.000000 900.000000"
 preserveAspectRatio="xMidYMid meet">

<g transform="translate(0.000000,900.000000) scale(0.100000,-0.100000)"
fill="#000000" stroke="none">
<path d="M4150 8989 c-504 -43 -941 -150 -1400 -341 -416 -174 -820 -422
-1165 -716 -121 -104 -392 -373 -499 -497 -434 -500 -770 -1139 -936 -1780
-64 -248 -76 -306 -105 -515 -34 -254 -45 -404 -45 -640 0 -522 88 -1038 259
-1510 187 -521 431 -947 788 -1380 114 -138 418 -441 563 -562 826 -685 1826
-1048 2890 -1048 887 0 1738 253 2470 736 500 329 922 747 1259 1244 291 431
497 884 625 1380 60 232 73 293 101 500 34 255 45 405 45 643 0 282 -25 553
-76 840 l-16 87 -229 0 c-136 0 -229 -4 -229 -9 0 -6 7 -39 15 -74 48 -207 85
-569 85 -837 0 -343 -41 -687 -117 -980 -24 -96 -49 -191 -54 -212 -16 -67
-121 -342 -184 -483 -396 -886 -1131 -1623 -2019 -2025 -446 -201 -879 -310
-1391 -351 -344 -27 -841 10 -1172 87 -779 181 -1441 550 -1995 1111 -330 333
-549 643 -758 1068 -274 559 -410 1147 -410 1775 0 404 63 825 181 1210 76
248 257 651 394 875 286 467 646 862 1077 1181 176 130 361 242 583 354 572
288 1175 430 1818 430 390 0 762 -53 1137 -161 104 -30 155 -48 318 -108 l82
-31 -2 241 -3 241 -95 35 c-290 104 -709 189 -1105 223 -138 11 -546 11 -685
-1z"/>
<path d="M8324 8032 c-808 -521 -1620 -1143 -2374 -1816 -704 -629 -1470
-1415 -2009 -2059 -41 -48 -80 -87 -87 -85 -7 2 -151 114 -321 249 -169 135
-477 380 -683 544 -206 165 -473 377 -593 473 -120 95 -222 172 -227 170 -7
-3 -213 -170 -668 -541 l-133 -109 32 -36 c18 -20 370 -386 783 -812 413 -426
967 -998 1230 -1270 900 -929 1108 -1142 1111 -1138 2 2 22 49 44 105 97 243
325 716 507 1048 653 1194 1546 2480 2475 3565 377 441 727 813 1173 1249
l168 164 -57 136 c-32 75 -74 175 -94 223 -20 49 -39 88 -42 88 -3 0 -108 -67
-235 -148z"/>
</g>
</svg>
