<?xml version="1.0" encoding="UTF-8"?>
<svg id="logo_home" xmlns="http://www.w3.org/2000/svg" viewBox="0 0 404.71 80.92"><defs>
	<style>fill:#550000 fill :#005500</style>
	</defs><g id="Layer_1-2"><path class="cls-2" d="M61.66,40.46c9.58,0,17.34,7.76,17.34,17.34,0,7.18-5.47,14.7-16.18,22.73-.69.51-1.63.51-2.31,0-10.71-8.03-16.18-15.56-16.18-22.73,0-9.58,7.76-17.34,17.34-17.34ZM38.54,0c21.28,0,38.54,17.25,38.54,38.54,0,1.51-.09,3-.26,4.46-1.6-1.64-3.47-3.02-5.53-4.07v-.38c0-2.66-.31-5.24-.91-7.71h-12.94c.19,2,.31,4.05.35,6.13-2.04.38-3.98,1.04-5.77,1.96v-.38c0-2.66-.14-5.24-.4-7.71h-26.18c-.26,2.47-.4,5.05-.4,7.71,0,4.08.33,7.98.92,11.56h15.94c-.71,1.82-1.18,3.76-1.36,5.78h-13.34c2.51,9.3,6.88,15.42,11.32,15.42,1.75,0,3.49-.95,5.11-2.67,1.39,2.37,3.21,4.71,5.39,7.01-3.34.94-6.86,1.45-10.5,1.45C17.25,77.08,0,59.82,0,38.54S17.25,0,38.54,0ZM21.23,55.88h-10.49c3.69,5.91,9.22,10.55,15.78,13.14-2.01-3.16-3.67-7.11-4.89-11.62l-.39-1.52ZM61.66,52.02c-3.19,0-5.78,2.59-5.78,5.78s2.59,5.78,5.78,5.78,5.78-2.59,5.78-5.78-2.59-5.78-5.78-5.78ZM19.63,30.83H6.69l-.02.07c-.59,2.45-.9,5.01-.9,7.64,0,4.07.74,7.97,2.1,11.56h12.23c-.55-3.66-.84-7.54-.84-11.56,0-2.64.13-5.21.37-7.71ZM26.52,8.06l-.09.03c-7.89,3.14-14.27,9.26-17.76,16.96h11.75c1.21-6.75,3.31-12.63,6.1-17ZM38.54,5.78l-.45.02c-4.88.45-9.59,8.16-11.77,19.25h24.44c-2.18-11.06-6.87-18.76-11.73-19.25l-.49-.02ZM50.56,8.06l.41.67c2.58,4.29,4.54,9.91,5.68,16.33h11.75c-3.33-7.37-9.31-13.28-16.72-16.53l-1.12-.47Z"/>
	<path class="cls-1" d="M150.12,14.64l-12.36,41.7h-7.74l-8.76-31.56-9.3,31.56-7.68.06-11.82-41.76h7.26l8.64,33.96,9.36-33.96h7.68l8.7,33.78,8.7-33.78h7.32Z"/>
	<path class="cls-1" d="M179.61,24.36c1.98,1.08,3.54,2.68,4.68,4.8,1.14,2.12,1.71,4.68,1.71,7.68v19.5h-6.78v-18.48c0-2.96-.74-5.23-2.22-6.81-1.48-1.58-3.5-2.37-6.06-2.37s-4.59.79-6.09,2.37c-1.5,1.58-2.25,3.85-2.25,6.81v18.48h-6.84V11.94h6.84v15.18c1.16-1.4,2.63-2.48,4.41-3.24,1.78-.76,3.73-1.14,5.85-1.14,2.52,0,4.77.54,6.75,1.62Z"/>
	<path class="cls-1" d="M224.76,42.36h-25.26c.2,2.64,1.18,4.76,2.94,6.36,1.76,1.6,3.92,2.4,6.48,2.4,3.68,0,6.28-1.54,7.8-4.62h7.38c-1,3.04-2.81,5.53-5.43,7.47-2.62,1.94-5.87,2.91-9.75,2.91-3.16,0-5.99-.71-8.49-2.13-2.5-1.42-4.46-3.42-5.88-6-1.42-2.58-2.13-5.57-2.13-8.97s.69-6.39,2.07-8.97c1.38-2.58,3.32-4.57,5.82-5.97,2.5-1.4,5.37-2.1,8.61-2.1s5.9.68,8.34,2.04c2.44,1.36,4.34,3.27,5.7,5.73,1.36,2.46,2.04,5.29,2.04,8.49,0,1.24-.08,2.36-.24,3.36ZM217.86,36.84c-.04-2.52-.94-4.54-2.7-6.06-1.76-1.52-3.94-2.28-6.54-2.28-2.36,0-4.38.75-6.06,2.25-1.68,1.5-2.68,3.53-3,6.09h18.3Z"/>
	<path class="cls-1" d="M242.55,24.15c1.66-.94,3.63-1.41,5.91-1.41v7.08h-1.74c-2.68,0-4.71.68-6.09,2.04-1.38,1.36-2.07,3.72-2.07,7.08v17.4h-6.84V23.28h6.84v4.8c1-1.68,2.33-2.99,3.99-3.93Z"/>
	<path class="cls-1" d="M284.82,42.36h-25.26c.2,2.64,1.18,4.76,2.94,6.36,1.76,1.6,3.92,2.4,6.48,2.4,3.68,0,6.28-1.54,7.8-4.62h7.38c-1,3.04-2.81,5.53-5.43,7.47-2.62,1.94-5.87,2.91-9.75,2.91-3.16,0-5.99-.71-8.49-2.13-2.5-1.42-4.46-3.42-5.88-6s-2.13-5.57-2.13-8.97.69-6.39,2.07-8.97c1.38-2.58,3.32-4.57,5.82-5.97,2.5-1.4,5.37-2.1,8.61-2.1s5.9.68,8.34,2.04c2.44,1.36,4.34,3.27,5.7,5.73,1.36,2.46,2.04,5.29,2.04,8.49,0,1.24-.08,2.36-.24,3.36ZM277.92,36.84c-.04-2.52-.94-4.54-2.7-6.06-1.76-1.52-3.94-2.28-6.54-2.28-2.36,0-4.38.75-6.06,2.25-1.68,1.5-2.68,3.53-3,6.09h18.3Z"/>
	<path class="cls-1" d="M334.32,14.64v5.58h-11.1v36.12h-6.84V20.22h-11.16v-5.58h29.1Z"/>
	<path class="cls-1" d="M347.1,54.75c-2.52-1.42-4.5-3.42-5.94-6-1.44-2.58-2.16-5.57-2.16-8.97s.74-6.34,2.22-8.94c1.48-2.6,3.5-4.6,6.06-6,2.56-1.4,5.42-2.1,8.58-2.1s6.02.7,8.58,2.1c2.56,1.4,4.58,3.4,6.06,6,1.48,2.6,2.22,5.58,2.22,8.94s-.76,6.34-2.28,8.94c-1.52,2.6-3.59,4.61-6.21,6.03-2.62,1.42-5.51,2.13-8.67,2.13s-5.94-.71-8.46-2.13ZM360.51,49.68c1.54-.84,2.79-2.1,3.75-3.78s1.44-3.72,1.44-6.12-.46-4.43-1.38-6.09c-.92-1.66-2.14-2.91-3.66-3.75-1.52-.84-3.16-1.26-4.92-1.26s-3.39.42-4.89,1.26c-1.5.84-2.69,2.09-3.57,3.75-.88,1.66-1.32,3.69-1.32,6.09,0,3.56.91,6.31,2.73,8.25,1.82,1.94,4.11,2.91,6.87,2.91,1.76,0,3.41-.42,4.95-1.26Z"/>
	<path class="cls-1" d="M400.52,17.4c2.46,2.24,3.69,5.3,3.69,9.18s-1.28,7.08-3.84,9.12c-2.56,2.04-5.96,3.06-10.2,3.06l-.24,4.74h-5.94l-.3-9.42h1.98c3.88,0,6.85-.52,8.91-1.56,2.06-1.04,3.09-3.02,3.09-5.94,0-2.12-.61-3.78-1.83-4.98-1.22-1.2-2.91-1.8-5.07-1.8s-3.86.58-5.1,1.74c-1.24,1.16-1.86,2.78-1.86,4.86h-6.42c0-2.4.54-4.54,1.62-6.42,1.08-1.88,2.63-3.34,4.65-4.38,2.02-1.04,4.37-1.56,7.05-1.56,4.08,0,7.35,1.12,9.81,3.36ZM383.75,55.5c-.84-.84-1.26-1.88-1.26-3.12s.42-2.28,1.26-3.12,1.88-1.26,3.12-1.26,2.22.42,3.06,1.26c.84.84,1.26,1.88,1.26,3.12s-.42,2.28-1.26,3.12c-.84.84-1.86,1.26-3.06,1.26s-2.28-.42-3.12-1.26Z"/></g>
</svg>