<svg version="1.1" id="Layer_1" xmlns="http://www.w3.org/2000/svg" xmlns:xlink="http://www.w3.org/1999/xlink" x="0px" y="0px"
	 width="100%" viewBox="0 0 896 496" enable-background="new 0 0 896 496" xml:space="preserve">
<path fill="#000000" opacity="1.000000" stroke="none" 
	d="
M489.945740,170.000000 
	C489.940857,182.498322 489.904541,194.496765 489.944336,206.494934 
	C489.964325,212.523743 490.460632,213.000854 496.524811,213.006592 
	C521.188660,213.029968 545.852844,212.939957 570.516235,213.050156 
	C589.617981,213.135483 605.229919,224.737595 609.303711,241.588089 
	C615.528198,267.334686 597.432373,289.751740 570.031433,289.955780 
	C546.202698,290.133240 522.371826,290.041016 498.541901,290.015137 
	C490.324371,290.006195 489.957855,290.356781 489.969421,298.820282 
	C490.002045,322.650665 490.091156,346.481567 489.971161,370.311340 
	C489.868713,390.651215 478.098022,405.505402 459.086151,409.709747 
	C437.664795,414.446930 415.714661,398.902740 413.696808,377.034546 
	C411.872711,357.266174 413.374329,337.405090 412.985901,317.588867 
	C412.865082,311.425598 412.988434,305.257477 413.007050,299.091583 
	C413.033356,290.368744 412.536865,289.926361 403.612701,289.940186 
	C380.116425,289.976624 356.620056,290.007233 333.123840,289.970947 
	C315.843719,289.944275 302.737732,282.729675 295.724335,266.616638 
	C284.492859,240.812683 303.069885,213.402084 331.942627,213.091812 
	C356.437042,212.828598 380.936432,213.042114 405.433624,213.017044 
	C412.870239,213.009445 412.944183,212.967453 412.956818,205.494247 
	C412.997864,181.163986 412.923157,156.833405 413.002899,132.503311 
	C413.064850,113.593399 424.695526,97.942642 441.623505,93.721367 
	C466.639740,87.483147 489.475739,105.245483 489.947937,131.506042 
	C490.175598,144.166595 489.960388,156.835098 489.945740,170.000000 
z"/>
</svg>