<?xml version="1.0" encoding="UTF-8"?><svg id="Layer_2" xmlns="http://www.w3.org/2000/svg" viewBox="0 0 129.95 203.3"><defs><style>.cls-1{fill:#231f20;stroke:#231f20;stroke-linecap:round;stroke-miterlimit:10;stroke-width:13px;}</style></defs><g id="Layer_1-2"><path class="cls-1" d="M64.97,6.5C32.68,6.5,6.5,32.68,6.5,64.97c0,12.6,7.81,27.74,10.76,33.79-.11.55,45.22,96.46,45.22,96.46,1,2.11,3.99,2.11,4.99,0,0,0,45.33-95.91,45.22-96.46,4.11-10.86,10.76-21.19,10.76-33.79,0-32.29-26.18-58.47-58.48-58.47ZM64.98,87.31c-13.39,0-24.25-10.86-24.25-24.25s10.86-24.25,24.25-24.25,24.24,10.86,24.24,24.25-10.85,24.25-24.24,24.25Z"/></g></svg>